<svg width="12" height="12" viewBox="0 0 12 12" fill="none" xmlns="http://www.w3.org/2000/svg">
    <path fill-rule="evenodd" clip-rule="evenodd" d="M1.33 1.33333H10.67C11.4047 1.33333 12 1.93 12 2.66267V10.6707C12 10.8453 11.9656 11.0182 11.8987 11.1795C11.8319 11.3409 11.7339 11.4874 11.6104 11.6109C11.4869 11.7343 11.3403 11.8322 11.1789 11.899C11.0176 11.9658 10.8446 12.0001 10.67 12H1.33C0.977377 12 0.639188 11.86 0.389784 11.6107C0.140379 11.3614 0.000176753 11.0233 0 10.6707V2.66267C0 1.92867 0.594667 1.33333 1.33 1.33333ZM1.33333 4V10C1.33333 10.1768 1.40357 10.3464 1.5286 10.4714C1.65362 10.5964 1.82319 10.6667 2 10.6667H10C10.1768 10.6667 10.3464 10.5964 10.4714 10.4714C10.5964 10.3464 10.6667 10.1768 10.6667 10V4H1.33333ZM2 0.666667C2 0.489856 2.07024 0.320286 2.19526 0.195262C2.32029 0.0702379 2.48986 0 2.66667 0C2.84348 0 3.01305 0.0702379 3.13807 0.195262C3.2631 0.320286 3.33333 0.489856 3.33333 0.666667V1.33333H2V0.666667ZM8.66667 0.666667C8.66667 0.489856 8.7369 0.320286 8.86193 0.195262C8.98695 0.0702379 9.15652 0 9.33333 0C9.51014 0 9.67971 0.0702379 9.80474 0.195262C9.92976 0.320286 10 0.489856 10 0.666667V1.33333H8.66667V0.666667ZM2.66667 6.66667V5.33267H4V6.66667H2.66667ZM8 6.66667V5.33267H9.33333V6.66667H8ZM5.33333 6.66667V5.33267H6.66733V6.66667H5.33333ZM2.66667 9.33333V8H4V9.33333H2.66667ZM5.33333 9.33333V8H6.66733V9.33333H5.33333ZM8 9.33333V8H9.33333V9.33333H8Z" />
</svg>
    