<svg width="17" height="18" viewBox="0 0 17 18" fill="none" xmlns="http://www.w3.org/2000/svg">
  <path d="M2 1C2 0.447715 1.55228 0 1 0C0.447715 0 0 0.447715 0 1H2ZM16.7071 10.7071C17.0976 10.3166 17.0976 9.68342 16.7071 9.29289L10.3431 2.92893C9.95262 2.53841 9.31946 2.53841 8.92893 2.92893C8.53841 3.31946 8.53841 3.95262 8.92893 4.34315L14.5858 10L8.92893 15.6569C8.53841 16.0474 8.53841 16.6805 8.92893 17.0711C9.31946 17.4616 9.95262 17.4616 10.3431 17.0711L16.7071 10.7071ZM0 1V7H2V1H0ZM4 11H16V9H4V11ZM0 7C0 9.20914 1.79086 11 4 11V9C2.89543 9 2 8.10457 2 7H0Z" />
</svg>
